<?xml version="1.0" standalone="no"?>
<!DOCTYPE svg PUBLIC "-//W3C//DTD SVG 20010904//EN"
 "http://www.w3.org/TR/2001/REC-SVG-20010904/DTD/svg10.dtd">
<svg version="1.0" xmlns="http://www.w3.org/2000/svg"
 width="512.000000pt" height="512.000000pt" viewBox="0 0 512.000000 512.000000"
 preserveAspectRatio="xMidYMid meet">

<g transform="translate(0.000000,512.000000) scale(0.100000,-0.100000)"
fill="#000000" stroke="none">
<path d="M2120 4471 c0 -5 -15 -13 -32 -16 -71 -16 -163 -70 -228 -135 -106
-106 -152 -224 -154 -395 -1 -97 0 -103 37 -178 52 -103 132 -184 229 -231
124 -59 146 -62 282 -37 65 12 125 26 134 31 10 5 39 19 67 32 65 30 165 129
202 198 48 92 58 136 58 255 0 107 -1 112 -38 188 -63 129 -157 216 -280 257
-37 13 -70 27 -73 31 -7 12 -204 11 -204 0z"/>
<path d="M3535 4043 c-16 -2 -34 -9 -39 -14 -6 -5 -22 -9 -37 -9 -15 0 -32 -7
-39 -15 -7 -8 -21 -15 -31 -15 -11 0 -19 -3 -19 -7 0 -5 -23 -24 -50 -43 -27
-19 -50 -38 -50 -42 0 -4 -13 -22 -28 -40 -16 -18 -32 -40 -35 -48 -4 -8 -11
-22 -16 -30 -49 -83 -81 -256 -61 -332 36 -137 150 -276 270 -331 59 -27 124
-47 155 -47 48 0 208 31 237 46 14 8 36 14 47 14 12 0 21 3 21 8 0 4 17 16 37
27 57 31 173 155 173 185 0 7 6 24 14 38 7 15 19 43 25 63 14 44 15 236 1 244
-5 3 -10 19 -10 34 0 16 -7 34 -15 41 -8 7 -15 21 -15 30 0 34 -151 190 -184
190 -7 0 -19 7 -26 15 -7 8 -24 15 -39 15 -15 0 -32 5 -38 11 -12 12 -196 21
-248 12z"/>
<path d="M1160 3489 c-161 -25 -230 -50 -320 -117 -33 -25 -44 -35 -92 -91
-26 -30 -63 -104 -79 -158 -7 -24 -16 -43 -21 -43 -4 0 -8 -45 -8 -100 0 -55
4 -100 9 -100 5 0 13 -14 16 -31 16 -74 77 -172 142 -230 104 -90 145 -119
175 -119 13 0 29 -5 36 -12 17 -17 205 -17 262 1 39 11 132 54 190 87 36 20
110 107 120 143 6 20 15 45 20 56 28 63 40 101 40 127 0 17 7 55 16 86 14 47
15 64 4 111 -31 143 -130 272 -261 339 -122 61 -148 67 -249 51z"/>
<path d="M2609 3086 c-3 -3 -45 -10 -94 -16 -110 -13 -160 -31 -247 -86 -159
-102 -249 -303 -220 -496 12 -77 31 -123 84 -203 35 -53 148 -152 213 -187 41
-22 123 -40 185 -41 45 -1 162 18 186 30 11 6 44 22 74 36 83 40 154 108 185
175 15 31 34 71 42 87 8 17 18 48 23 70 5 22 13 58 19 80 14 52 14 130 0 174
-40 131 -151 270 -254 320 -28 13 -57 27 -66 32 -9 4 -34 11 -55 14 -22 4 -46
9 -55 11 -8 2 -17 2 -20 0z"/>
<path d="M3875 2598 c-22 -5 -54 -12 -72 -15 -18 -3 -38 -11 -44 -19 -6 -8
-20 -14 -30 -14 -11 0 -19 -4 -19 -8 0 -4 -14 -16 -31 -26 -81 -48 -155 -151
-193 -269 -21 -63 -21 -225 -1 -274 8 -19 15 -44 15 -54 0 -11 4 -19 8 -19 5
0 16 -17 25 -37 21 -46 48 -77 107 -123 25 -19 47 -38 48 -42 2 -5 11 -8 21
-8 9 0 25 -6 36 -13 42 -28 112 -42 205 -42 99 0 147 10 240 53 62 28 185 145
212 202 28 60 48 120 48 143 0 13 7 32 15 43 16 21 21 94 6 94 -5 0 -15 26
-21 57 -7 31 -16 64 -20 72 -4 9 -16 34 -26 56 -27 56 -167 195 -197 195 -7 0
-17 4 -23 10 -18 18 -158 50 -214 49 -30 -1 -73 -6 -95 -11z"/>
<path d="M1435 2066 c-100 -18 -141 -33 -215 -81 -65 -42 -140 -111 -140 -129
0 -5 -13 -37 -29 -70 -60 -128 -76 -250 -46 -357 57 -199 209 -333 416 -368
65 -11 86 -11 152 3 41 8 95 24 119 35 24 10 60 24 80 31 21 6 57 30 81 53 49
47 127 161 127 187 0 9 4 20 10 26 17 17 32 164 25 239 -6 61 -30 125 -55 145
-4 3 -21 26 -38 51 -44 65 -167 174 -227 203 -27 13 -68 26 -90 29 -22 3 -53
8 -70 10 -16 3 -61 0 -100 -7z"/>
<path d="M2735 1633 c-55 -20 -91 -26 -165 -27 -52 0 -101 -5 -107 -9 -9 -5
-13 -34 -13 -82 0 -56 -6 -90 -25 -137 -75 -190 -68 -357 21 -477 97 -132 211
-216 317 -235 20 -4 37 -11 37 -16 0 -14 177 -13 182 1 2 5 23 14 47 20 75 17
149 60 219 128 81 78 123 158 147 278 15 76 15 88 0 162 -29 144 -95 241 -235
347 -77 58 -133 74 -254 73 -82 0 -114 -5 -171 -26z"/>
</g>
</svg>
